<?xml version="1.0" encoding="iso-8859-1"?>
<!-- Generator: Adobe Illustrator 19.0.0, SVG Export Plug-In . SVG Version: 6.00 Build 0)  -->
<svg version="1.1" id="Layer_1" xmlns="http://www.w3.org/2000/svg" xmlns:xlink="http://www.w3.org/1999/xlink" x="0px" y="0px"
	 viewBox="0 0 512 512" style="enable-background:new 0 0 512 512;" xml:space="preserve">
<rect y="297.796" style="fill:#31C0D8;" width="512" height="203.755"/>
<path style="fill:#FFD248;" d="M360.49,297.796H151.51c0-57.673,46.811-104.49,104.49-104.49
	C313.673,193.306,360.49,240.123,360.49,297.796z"/>
<g>
	<rect x="245.551" y="120.163" style="fill:#231F20;" width="20.898" height="47.02"/>
	<rect x="381.388" y="235.102" style="fill:#231F20;" width="47.02" height="20.898"/>
	<rect x="83.592" y="235.102" style="fill:#231F20;" width="47.02" height="20.898"/>
	
		<rect x="339.584" y="160.695" transform="matrix(-0.7071 -0.7071 0.7071 -0.7071 468.2407 559.6754)" style="fill:#231F20;" width="20.898" height="44.335"/>
	
		<rect x="134.561" y="172.407" transform="matrix(0.7071 0.7071 -0.7071 0.7071 175.2034 -57.2664)" style="fill:#231F20;" width="44.335" height="20.898"/>
	<path style="fill:#231F20;" d="M370.459,287.347c-5.298-58.498-54.604-104.49-114.459-104.49s-109.162,45.992-114.459,104.49H0
		v20.898h512v-20.898H370.459z M256,203.755c48.322,0,88.243,36.638,93.457,83.592H162.543
		C167.757,240.393,207.678,203.755,256,203.755z"/>
	<path style="fill:#231F20;" d="M274.662,374.902c9.095-4.931,16.95-9.188,33.583-9.188v-20.898
		c-21.931,0-33.413,6.222-43.541,11.712c-9.094,4.93-16.947,9.186-33.572,9.186c-16.638,0-24.488-4.26-33.578-9.194
		c-10.108-5.486-21.566-11.704-43.432-11.704c-21.927,0-33.407,6.222-43.536,11.711c-9.094,4.93-16.948,9.187-33.577,9.187
		c-16.562,0-24.394-4.251-33.463-9.173C33.421,351.045,21.943,344.816,0,344.816v20.898c16.638,0,24.488,4.26,33.578,9.194
		c10.108,5.486,21.566,11.704,43.432,11.704c21.927,0,33.407-6.222,43.535-11.711c9.095-4.93,16.948-9.187,33.577-9.187
		c16.562,0,24.394,4.251,33.463,9.173c10.126,5.496,21.603,11.725,43.547,11.725C253.057,386.612,264.535,380.391,274.662,374.902z"
		/>
	<path style="fill:#231F20;" d="M434.888,444.082c-16.642,0-24.492-4.261-33.584-9.195c-10.107-5.486-21.564-11.703-43.426-11.703
		c-21.931,0-33.413,6.222-43.541,11.712c-9.094,4.93-16.947,9.186-33.572,9.186c-16.562,0-24.394-4.251-33.463-9.173
		c-10.126-5.496-21.604-11.725-43.547-11.725v20.898c16.638,0,24.488,4.26,33.578,9.194c10.108,5.486,21.565,11.704,43.432,11.704
		c21.923,0,33.402-6.221,43.529-11.71c9.095-4.931,16.95-9.188,33.583-9.188c16.558,0,24.39,4.251,33.459,9.172
		c10.126,5.496,21.605,11.726,43.552,11.726c21.923,0,33.402-6.221,43.529-11.71c9.095-4.931,16.949-9.188,33.582-9.188v-20.898
		c-21.931,0-33.413,6.222-43.541,11.712C459.365,439.826,451.512,444.082,434.888,444.082z"/>
	<path style="fill:#231F20;" d="M397.061,386.612c17.765,0,27.255-6.902,34.881-12.448c6.746-4.905,11.619-8.45,22.589-8.45v-20.898
		c-17.765,0-27.255,6.902-34.881,12.448c-6.746,4.905-11.619,8.45-22.589,8.45c-10.969,0-15.843-3.545-22.589-8.45
		c-7.626-5.546-17.115-12.448-34.881-12.448v20.898c10.969,0,15.843,3.545,22.589,8.45
		C369.806,379.711,379.296,386.612,397.061,386.612z"/>
	<path style="fill:#231F20;" d="M114.939,444.082c-10.969,0-15.844-3.545-22.589-8.45c-7.626-5.546-17.115-12.448-34.881-12.448
		v20.898c10.969,0,15.844,3.545,22.589,8.45c7.626,5.546,17.115,12.448,34.881,12.448s27.255-6.902,34.881-12.448
		c6.745-4.905,11.619-8.45,22.589-8.45v-20.898c-17.765,0-27.255,6.902-34.881,12.448
		C130.783,440.536,125.908,444.082,114.939,444.082z"/>
	<path style="fill:#231F20;" d="M370.939,31.347c5.762,0,10.449,4.687,10.449,10.449h20.898c0-5.762,4.687-10.449,10.449-10.449
		s10.449,4.687,10.449,10.449h20.898c0-17.285-14.062-31.347-31.347-31.347c-8.023,0-15.349,3.032-20.898,8.008
		c-5.549-4.976-12.875-8.008-20.898-8.008c-17.285,0-31.347,14.062-31.347,31.347h20.898
		C360.49,36.034,365.177,31.347,370.939,31.347z"/>
	<path style="fill:#231F20;" d="M245.551,73.143c5.762,0,10.449,4.687,10.449,10.449h20.898c0-5.762,4.687-10.449,10.449-10.449
		s10.449,4.687,10.449,10.449h20.898c0-17.285-14.062-31.347-31.347-31.347c-8.023,0-15.349,3.032-20.898,8.008
		c-5.551-4.976-12.875-8.008-20.898-8.008c-17.285,0-31.347,14.062-31.347,31.347h20.898
		C235.102,77.83,239.789,73.143,245.551,73.143z"/>
	<path style="fill:#231F20;" d="M88.816,52.245c5.762,0,10.449,4.687,10.449,10.449h20.898c0-5.762,4.687-10.449,10.449-10.449
		c5.762,0,10.449,4.687,10.449,10.449h20.898c0-17.285-14.062-31.347-31.347-31.347c-8.023,0-15.349,3.032-20.898,8.008
		c-5.55-4.976-12.875-8.008-20.898-8.008c-17.285,0-31.347,14.062-31.347,31.347h20.898C78.367,56.932,83.055,52.245,88.816,52.245z
		"/>
</g>
<g>
</g>
<g>
</g>
<g>
</g>
<g>
</g>
<g>
</g>
<g>
</g>
<g>
</g>
<g>
</g>
<g>
</g>
<g>
</g>
<g>
</g>
<g>
</g>
<g>
</g>
<g>
</g>
<g>
</g>
</svg>
